<svg xmlns="http://www.w3.org/2000/svg" viewBox="0 0 640 360" width="640" height="360" role="img" aria-label="Distributed Systems - Java illustration">
<defs>
<linearGradient id="bg" x1="0" y1="0" x2="1" y2="1"><stop offset="0" stop-color="#0b1115"/><stop offset="1" stop-color="#151e24"/></linearGradient>
<radialGradient id="glow" cx="0.66" cy="0.48" r="0.6"><stop offset="0" stop-color="#F2C14E" stop-opacity="0.26"/><stop offset="1" stop-color="#F2C14E" stop-opacity="0"/></radialGradient>
<radialGradient id="glow2" cx="0.05" cy="1" r="0.7"><stop offset="0" stop-color="#2FC4B2" stop-opacity="0.12"/><stop offset="1" stop-color="#2FC4B2" stop-opacity="0"/></radialGradient>
<pattern id="grid" width="32" height="32" patternUnits="userSpaceOnUse"><path d="M32 0H0V32" fill="none" stroke="#fff" stroke-opacity="0.045"/></pattern>
<linearGradient id="acc" x1="0" y1="0" x2="1" y2="1"><stop offset="0" stop-color="#F2C14E"/><stop offset="1" stop-color="#F36F56"/></linearGradient>
<linearGradient id="fade" x1="0" y1="0" x2="0" y2="1"><stop offset="0" stop-color="#F2C14E" stop-opacity="0.35"/><stop offset="1" stop-color="#F2C14E" stop-opacity="0"/></linearGradient>
<filter id="soft" x="-50%" y="-50%" width="200%" height="200%"><feGaussianBlur stdDeviation="8"/></filter>
<marker id="arr" viewBox="0 0 10 10" refX="7" refY="5" markerWidth="7" markerHeight="7" orient="auto-start-reverse"><path d="M0 0L10 5L0 10z" fill="#F2C14E"/></marker>
</defs>
<rect width="640" height="360" fill="url(#bg)"/>
<rect width="640" height="360" fill="url(#grid)"/>
<rect width="640" height="360" fill="url(#glow)"/>
<rect width="640" height="360" fill="url(#glow2)"/>
<path d="M370 182 Q399.5 134.7 429 87.4" fill="none" stroke="#F2C14E" stroke-opacity="0.55" stroke-width="2" stroke-linecap="round" stroke-dasharray="5 6"/><path d="M370 182 Q429 181.7 488 181.4" fill="none" stroke="#F2C14E" stroke-opacity="0.55" stroke-width="2" stroke-linecap="round" stroke-dasharray="5 6"/><path d="M370 182 Q399.5 228.7 429 275.5" fill="none" stroke="#F2C14E" stroke-opacity="0.55" stroke-width="2" stroke-linecap="round" stroke-dasharray="5 6"/><path d="M370 182 Q340.5 228.7 311 275.5" fill="none" stroke="#F2C14E" stroke-opacity="0.55" stroke-width="2" stroke-linecap="round" stroke-dasharray="5 6"/><path d="M370 182 Q311 181.7 252 181.4" fill="none" stroke="#F2C14E" stroke-opacity="0.55" stroke-width="2" stroke-linecap="round" stroke-dasharray="5 6"/><path d="M370 182 Q340.5 134.7 311 87.4" fill="none" stroke="#F2C14E" stroke-opacity="0.55" stroke-width="2" stroke-linecap="round" stroke-dasharray="5 6"/><path d="M429 87.4 Q458.5 134.4 488 181.4" fill="none" stroke="#F36F56" stroke-opacity="0.25" stroke-width="1.5" stroke-linecap="round"/><path d="M488 181.4 Q458.5 228.4 429 275.5" fill="none" stroke="#F36F56" stroke-opacity="0.25" stroke-width="1.5" stroke-linecap="round"/><path d="M429 275.5 Q370 275.5 311 275.5" fill="none" stroke="#F36F56" stroke-opacity="0.25" stroke-width="1.5" stroke-linecap="round"/><path d="M311 275.5 Q281.5 228.4 252 181.4" fill="none" stroke="#F36F56" stroke-opacity="0.25" stroke-width="1.5" stroke-linecap="round"/><path d="M252 181.4 Q281.5 134.4 311 87.4" fill="none" stroke="#F36F56" stroke-opacity="0.25" stroke-width="1.5" stroke-linecap="round"/><path d="M311 87.4 Q370 87.4 429 87.4" fill="none" stroke="#F36F56" stroke-opacity="0.25" stroke-width="1.5" stroke-linecap="round"/><polygon points="429,63.4 449.8,75.4 449.8,99.4 429,111.4 408.2,99.4 408.2,75.4" fill="#F2C14E" fill-opacity="0.12" stroke="#F2C14E" stroke-opacity="0.9" stroke-width="2" stroke-linejoin="round"/><rect x="420" y="80.4" width="18" height="14" rx="2" fill="none" stroke="#fff" stroke-opacity=".55" stroke-width="1.6"/><path d="M420 85.4 H438" stroke="#fff" stroke-opacity=".55" stroke-width="1.6"/><polygon points="488,157.4 508.8,169.4 508.8,193.4 488,205.4 467.2,193.4 467.2,169.4" fill="#F36F56" fill-opacity="0.12" stroke="#F36F56" stroke-opacity="0.9" stroke-width="2" stroke-linejoin="round"/><rect x="479" y="174.4" width="18" height="14" rx="2" fill="none" stroke="#fff" stroke-opacity=".55" stroke-width="1.6"/><path d="M479 179.4 H497" stroke="#fff" stroke-opacity=".55" stroke-width="1.6"/><polygon points="429,251.5 449.8,263.5 449.8,287.5 429,299.5 408.2,287.5 408.2,263.5" fill="#F2C14E" fill-opacity="0.12" stroke="#F2C14E" stroke-opacity="0.9" stroke-width="2" stroke-linejoin="round"/><rect x="420" y="268.5" width="18" height="14" rx="2" fill="none" stroke="#fff" stroke-opacity=".55" stroke-width="1.6"/><path d="M420 273.5 H438" stroke="#fff" stroke-opacity=".55" stroke-width="1.6"/><polygon points="311,251.5 331.8,263.5 331.8,287.5 311,299.5 290.2,287.5 290.2,263.5" fill="#F36F56" fill-opacity="0.12" stroke="#F36F56" stroke-opacity="0.9" stroke-width="2" stroke-linejoin="round"/><rect x="302" y="268.5" width="18" height="14" rx="2" fill="none" stroke="#fff" stroke-opacity=".55" stroke-width="1.6"/><path d="M302 273.5 H320" stroke="#fff" stroke-opacity=".55" stroke-width="1.6"/><polygon points="252,157.4 272.8,169.4 272.8,193.4 252,205.4 231.2,193.4 231.2,169.4" fill="#F2C14E" fill-opacity="0.12" stroke="#F2C14E" stroke-opacity="0.9" stroke-width="2" stroke-linejoin="round"/><rect x="243" y="174.4" width="18" height="14" rx="2" fill="none" stroke="#fff" stroke-opacity=".55" stroke-width="1.6"/><path d="M243 179.4 H261" stroke="#fff" stroke-opacity=".55" stroke-width="1.6"/><polygon points="311,63.4 331.8,75.4 331.8,99.4 311,111.4 290.2,99.4 290.2,75.4" fill="#F36F56" fill-opacity="0.12" stroke="#F36F56" stroke-opacity="0.9" stroke-width="2" stroke-linejoin="round"/><rect x="302" y="80.4" width="18" height="14" rx="2" fill="none" stroke="#fff" stroke-opacity=".55" stroke-width="1.6"/><path d="M302 85.4 H320" stroke="#fff" stroke-opacity=".55" stroke-width="1.6"/><circle cx="370" cy="182" r="60" fill="#F2C14E" fill-opacity=".22" filter="url(#soft)"/><circle cx="370" cy="182" r="48" fill="#111a20" stroke="#F2C14E" stroke-width="2.5"/><path d="M21 5c-1.11-.35-2.33-.5-3.5-.5-1.95 0-4.05.4-5.5 1.5-1.45-1.1-3.55-1.5-5.5-1.5S2.45 4.9 1 6v14.65c0 .25.25.5.5.5.1 0 .15-.05.25-.05C3.1 20.45 5.05 20 6.5 20c1.95 0 4.05.4 5.5 1.5 1.35-.85 3.8-1.5 5.5-1.5 1.65 0 3.35.3 4.75 1.05.1.05.15.05.25.05.25 0 .5-.25.5-.5V6c-.6-.45-1.25-.75-2-1zm0 13.5c-1.1-.35-2.3-.5-3.5-.5-1.7 0-4.15.65-5.5 1.5V8c1.35-.85 3.8-1.5 5.5-1.5 1.2 0 2.4.15 3.5.5v11.5z" transform="translate(345 159) scale(2.083)" fill="#F2C14E" fill-opacity="1"/>
<rect x="32" y="321" width="18" height="3" rx="1.5" fill="#F2C14E"/>
<text x="58" y="327" font-family="'Segoe UI', 'Helvetica Neue', Arial, sans-serif" font-size="12" font-weight="600" letter-spacing="2" text-anchor="start" fill="#dbe3e7" fill-opacity="0.8">DISTRIBUTED SYSTEMS · JAVA</text>
</svg>
