<svg xmlns="http://www.w3.org/2000/svg" viewBox="0 0 640 360" width="640" height="360" role="img" aria-label="Business Intelligence - Tableau illustration">
<defs>
<linearGradient id="bg" x1="0" y1="0" x2="1" y2="1"><stop offset="0" stop-color="#0b1115"/><stop offset="1" stop-color="#151e24"/></linearGradient>
<radialGradient id="glow" cx="0.66" cy="0.48" r="0.6"><stop offset="0" stop-color="#B19CD9" stop-opacity="0.26"/><stop offset="1" stop-color="#B19CD9" stop-opacity="0"/></radialGradient>
<radialGradient id="glow2" cx="0.05" cy="1" r="0.7"><stop offset="0" stop-color="#2FC4B2" stop-opacity="0.12"/><stop offset="1" stop-color="#2FC4B2" stop-opacity="0"/></radialGradient>
<pattern id="grid" width="32" height="32" patternUnits="userSpaceOnUse"><path d="M32 0H0V32" fill="none" stroke="#fff" stroke-opacity="0.045"/></pattern>
<linearGradient id="acc" x1="0" y1="0" x2="1" y2="1"><stop offset="0" stop-color="#B19CD9"/><stop offset="1" stop-color="#6DAEDB"/></linearGradient>
<linearGradient id="fade" x1="0" y1="0" x2="0" y2="1"><stop offset="0" stop-color="#B19CD9" stop-opacity="0.35"/><stop offset="1" stop-color="#B19CD9" stop-opacity="0"/></linearGradient>
<filter id="soft" x="-50%" y="-50%" width="200%" height="200%"><feGaussianBlur stdDeviation="8"/></filter>
<marker id="arr" viewBox="0 0 10 10" refX="7" refY="5" markerWidth="7" markerHeight="7" orient="auto-start-reverse"><path d="M0 0L10 5L0 10z" fill="#B19CD9"/></marker>
</defs>
<rect width="640" height="360" fill="url(#bg)"/>
<rect width="640" height="360" fill="url(#grid)"/>
<rect width="640" height="360" fill="url(#glow)"/>
<rect width="640" height="360" fill="url(#glow2)"/>
<rect x="130" y="90" width="290" height="200" rx="12" fill="#fff" fill-opacity="0.045" stroke="#fff" stroke-opacity="0.12"/><rect x="150" y="108" width="90" height="5" rx="2.5" fill="#fff" fill-opacity="0.3"/><rect x="150" y="205" width="23.4" height="63" rx="3" fill="#B19CD9" fill-opacity="0.45"/><rect x="182.4" y="184" width="23.4" height="84" rx="3" fill="#B19CD9" fill-opacity="0.45"/><rect x="214.8" y="214.8" width="23.4" height="53.2" rx="3" fill="#B19CD9" fill-opacity="0.45"/><rect x="247.1" y="167.2" width="23.4" height="100.8" rx="3" fill="#B19CD9" fill-opacity="0.45"/><rect x="279.5" y="191" width="23.4" height="77" rx="3" fill="#B19CD9" fill-opacity="0.45"/><rect x="311.9" y="144.8" width="23.4" height="123.2" rx="3" fill="#B19CD9" fill-opacity="0.45"/><rect x="344.2" y="175.6" width="23.4" height="92.4" rx="3" fill="#B19CD9" fill-opacity="0.45"/><rect x="376.6" y="135" width="23.4" height="133" rx="3" fill="#B19CD9" fill-opacity="1"/><path d="M150 219 L185.7 209.2 L221.4 221.8 L257.1 191 L292.9 198 L328.6 170 L364.3 184 L400 156" fill="none" stroke="#6DAEDB" stroke-width="2" stroke-linejoin="round" stroke-linecap="round"/><circle cx="400" cy="156" r="4.5" fill="#6DAEDB"/><circle cx="400" cy="156" r="9" fill="#6DAEDB" fill-opacity=".2"/><rect x="438" y="90" width="150" height="56" rx="10" fill="#fff" fill-opacity="0.045" stroke="#fff" stroke-opacity="0.12"/><rect x="452" y="104" width="60" height="4" rx="2.0" fill="#fff" fill-opacity="0.25"/><rect x="452" y="118" width="92" height="12" rx="6.0" fill="#B19CD9" fill-opacity="1"/><rect x="438" y="156" width="150" height="56" rx="10" fill="#fff" fill-opacity="0.045" stroke="#fff" stroke-opacity="0.12"/><rect x="452" y="170" width="60" height="4" rx="2.0" fill="#fff" fill-opacity="0.25"/><circle cx="560" cy="184" r="16" fill="none" stroke="#fff" stroke-opacity=".08" stroke-width="7"/><circle cx="560" cy="184" r="16" fill="none" stroke="#6DAEDB" stroke-width="7" stroke-dasharray="65.4 35.2" stroke-dashoffset="0" transform="rotate(-90 560 184)"/><rect x="452" y="186" width="68" height="12" rx="6.0" fill="#6DAEDB" fill-opacity="0.8"/><rect x="448" y="274" width="130" height="17" rx="3" fill="#B19CD9" fill-opacity=".85"/><rect x="460" y="280" width="52" height="4" rx="2" fill="#0f1418" fill-opacity=".45"/><rect x="456" y="254" width="118" height="17" rx="3" fill="#6DAEDB" fill-opacity=".85"/><rect x="468" y="260" width="47" height="4" rx="2" fill="#0f1418" fill-opacity=".45"/><rect x="444" y="234" width="124" height="17" rx="3" fill="#F2C14E" fill-opacity=".85"/><rect x="456" y="240" width="50" height="4" rx="2" fill="#0f1418" fill-opacity=".45"/>
<rect x="32" y="321" width="18" height="3" rx="1.5" fill="#B19CD9"/>
<text x="58" y="327" font-family="'Segoe UI', 'Helvetica Neue', Arial, sans-serif" font-size="12" font-weight="600" letter-spacing="2" text-anchor="start" fill="#dbe3e7" fill-opacity="0.8">BUSINESS INTELLIGENCE · TABLEAU</text>
</svg>
