<svg xmlns="http://www.w3.org/2000/svg" viewBox="0 0 640 360" width="640" height="360" role="img" aria-label="Healthcare - Executive Dashboard illustration">
<defs>
<linearGradient id="bg" x1="0" y1="0" x2="1" y2="1"><stop offset="0" stop-color="#0b1115"/><stop offset="1" stop-color="#151e24"/></linearGradient>
<radialGradient id="glow" cx="0.66" cy="0.48" r="0.6"><stop offset="0" stop-color="#FFE66D" stop-opacity="0.26"/><stop offset="1" stop-color="#FFE66D" stop-opacity="0"/></radialGradient>
<radialGradient id="glow2" cx="0.05" cy="1" r="0.7"><stop offset="0" stop-color="#2FC4B2" stop-opacity="0.12"/><stop offset="1" stop-color="#2FC4B2" stop-opacity="0"/></radialGradient>
<pattern id="grid" width="32" height="32" patternUnits="userSpaceOnUse"><path d="M32 0H0V32" fill="none" stroke="#fff" stroke-opacity="0.045"/></pattern>
<linearGradient id="acc" x1="0" y1="0" x2="1" y2="1"><stop offset="0" stop-color="#FFE66D"/><stop offset="1" stop-color="#F36F56"/></linearGradient>
<linearGradient id="fade" x1="0" y1="0" x2="0" y2="1"><stop offset="0" stop-color="#FFE66D" stop-opacity="0.35"/><stop offset="1" stop-color="#FFE66D" stop-opacity="0"/></linearGradient>
<filter id="soft" x="-50%" y="-50%" width="200%" height="200%"><feGaussianBlur stdDeviation="8"/></filter>
<marker id="arr" viewBox="0 0 10 10" refX="7" refY="5" markerWidth="7" markerHeight="7" orient="auto-start-reverse"><path d="M0 0L10 5L0 10z" fill="#FFE66D"/></marker>
</defs>
<rect width="640" height="360" fill="url(#bg)"/>
<rect width="640" height="360" fill="url(#grid)"/>
<rect width="640" height="360" fill="url(#glow)"/>
<rect width="640" height="360" fill="url(#glow2)"/>
<rect x="130" y="72" width="460" height="230" rx="12" fill="#fff" fill-opacity="0.045" stroke="#fff" stroke-opacity="0.12"/><path d="M130 100 H590" stroke="#fff" stroke-opacity=".1"/><circle cx="146" cy="86" r="3.5" fill="#F36F56" fill-opacity=".8"/><circle cx="158" cy="86" r="3.5" fill="#F2C14E" fill-opacity=".8"/><circle cx="170" cy="86" r="3.5" fill="#2FC4B2" fill-opacity=".8"/><rect x="148" y="112" width="130" height="50" rx="8" fill="#fff" fill-opacity="0.045" stroke="#fff" stroke-opacity="0.12"/><rect x="160" y="124" width="50" height="4" rx="2.0" fill="#fff" fill-opacity="0.25"/><rect x="160" y="138" width="63.7" height="10" rx="5.0" fill="#FFE66D" fill-opacity="1"/><rect x="290" y="112" width="130" height="50" rx="8" fill="#fff" fill-opacity="0.045" stroke="#fff" stroke-opacity="0.12"/><rect x="302" y="124" width="50" height="4" rx="2.0" fill="#fff" fill-opacity="0.25"/><rect x="302" y="138" width="45.5" height="10" rx="5.0" fill="#F36F56" fill-opacity="1"/><rect x="432" y="112" width="130" height="50" rx="8" fill="#fff" fill-opacity="0.045" stroke="#fff" stroke-opacity="0.12"/><rect x="444" y="124" width="50" height="4" rx="2.0" fill="#fff" fill-opacity="0.25"/><rect x="444" y="138" width="54.6" height="10" rx="5.0" fill="#2FC4B2" fill-opacity="1"/><path d="M10 3h4v7h7v4h-7v7h-4v-7H3v-4h7z" transform="translate(252 128) scale(0.667)" fill="#FFE66D" fill-opacity="0.9"/><rect x="148" y="174" width="272" height="112" rx="8" fill="#fff" fill-opacity="0.045" stroke="#fff" stroke-opacity="0.12"/><path d="M162 247.2 L189.1 238.1 L216.2 241.1 L243.3 228.2 L270.4 232 L297.6 218.3 L324.7 222.9 L351.8 209.2 L378.9 213.8 L406 200.1 L406 270 L162 270Z" fill="url(#fade)"/><path d="M162 247.2 L189.1 238.1 L216.2 241.1 L243.3 228.2 L270.4 232 L297.6 218.3 L324.7 222.9 L351.8 209.2 L378.9 213.8 L406 200.1" fill="none" stroke="#FFE66D" stroke-width="2.5" stroke-linejoin="round" stroke-linecap="round"/><circle cx="406" cy="200.1" r="4.5" fill="#FFE66D"/><circle cx="406" cy="200.1" r="9" fill="#FFE66D" fill-opacity=".2"/><rect x="432" y="174" width="140" height="112" rx="8" fill="#fff" fill-opacity="0.045" stroke="#fff" stroke-opacity="0.12"/><circle cx="502" cy="230" r="34" fill="none" stroke="#fff" stroke-opacity=".08" stroke-width="12"/><circle cx="502" cy="230" r="34" fill="none" stroke="#FFE66D" stroke-width="12" stroke-dasharray="93.1 120.5" stroke-dashoffset="0" transform="rotate(-90 502 230)"/><circle cx="502" cy="230" r="34" fill="none" stroke="#F36F56" stroke-width="12" stroke-dasharray="61.1 152.5" stroke-dashoffset="-96.1" transform="rotate(-90 502 230)"/><circle cx="502" cy="230" r="34" fill="none" stroke="#2FC4B2" stroke-width="12" stroke-dasharray="50.4 163.2" stroke-dashoffset="-160.2" transform="rotate(-90 502 230)"/>
<rect x="32" y="321" width="18" height="3" rx="1.5" fill="#FFE66D"/>
<text x="58" y="327" font-family="'Segoe UI', 'Helvetica Neue', Arial, sans-serif" font-size="12" font-weight="600" letter-spacing="2" text-anchor="start" fill="#dbe3e7" fill-opacity="0.8">HEALTHCARE · EXECUTIVE DASHBOARD</text>
</svg>
