<svg xmlns="http://www.w3.org/2000/svg" viewBox="0 0 640 360" width="640" height="360" role="img" aria-label="Chat System - Java illustration">
<defs>
<linearGradient id="bg" x1="0" y1="0" x2="1" y2="1"><stop offset="0" stop-color="#0b1115"/><stop offset="1" stop-color="#151e24"/></linearGradient>
<radialGradient id="glow" cx="0.66" cy="0.48" r="0.6"><stop offset="0" stop-color="#A8DADC" stop-opacity="0.26"/><stop offset="1" stop-color="#A8DADC" stop-opacity="0"/></radialGradient>
<radialGradient id="glow2" cx="0.05" cy="1" r="0.7"><stop offset="0" stop-color="#2FC4B2" stop-opacity="0.12"/><stop offset="1" stop-color="#2FC4B2" stop-opacity="0"/></radialGradient>
<pattern id="grid" width="32" height="32" patternUnits="userSpaceOnUse"><path d="M32 0H0V32" fill="none" stroke="#fff" stroke-opacity="0.045"/></pattern>
<linearGradient id="acc" x1="0" y1="0" x2="1" y2="1"><stop offset="0" stop-color="#A8DADC"/><stop offset="1" stop-color="#6DAEDB"/></linearGradient>
<linearGradient id="fade" x1="0" y1="0" x2="0" y2="1"><stop offset="0" stop-color="#A8DADC" stop-opacity="0.35"/><stop offset="1" stop-color="#A8DADC" stop-opacity="0"/></linearGradient>
<filter id="soft" x="-50%" y="-50%" width="200%" height="200%"><feGaussianBlur stdDeviation="8"/></filter>
<marker id="arr" viewBox="0 0 10 10" refX="7" refY="5" markerWidth="7" markerHeight="7" orient="auto-start-reverse"><path d="M0 0L10 5L0 10z" fill="#A8DADC"/></marker>
</defs>
<rect width="640" height="360" fill="url(#bg)"/>
<rect width="640" height="360" fill="url(#grid)"/>
<rect width="640" height="360" fill="url(#glow)"/>
<rect width="640" height="360" fill="url(#glow2)"/>
<rect x="150" y="74" width="300" height="228" rx="12" fill="#fff" fill-opacity="0.045" stroke="#fff" stroke-opacity="0.12"/><path d="M150 102 H450" stroke="#fff" stroke-opacity=".1"/><circle cx="166" cy="88" r="3.5" fill="#F36F56" fill-opacity=".8"/><circle cx="178" cy="88" r="3.5" fill="#F2C14E" fill-opacity=".8"/><circle cx="190" cy="88" r="3.5" fill="#2FC4B2" fill-opacity=".8"/><circle cx="190" cy="92" r="0"/><rect x="380" y="86" width="54" height="5" rx="2.5" fill="#fff" fill-opacity="0.25"/><circle cx="182" cy="138" r="10" fill="#6DAEDB" fill-opacity=".5"/><rect x="200" y="118" width="150" height="30" rx="12" fill="#fff" fill-opacity=".09"/><rect x="214" y="130" width="116" height="5" rx="2.5" fill="#fff" fill-opacity="0.3"/><rect x="306" y="160" width="120" height="30" rx="12" fill="#A8DADC" fill-opacity=".85"/><rect x="320" y="172" width="86" height="5" rx="2.5" fill="#0f1418" fill-opacity="0.45"/><circle cx="182" cy="234" r="10" fill="#6DAEDB" fill-opacity=".5"/><rect x="200" y="202" width="96" height="42" rx="12" fill="#fff" fill-opacity=".09"/><rect x="214" y="214" width="62" height="5" rx="2.5" fill="#fff" fill-opacity="0.3"/><rect x="214" y="226" width="38" height="5" rx="2.5" fill="#fff" fill-opacity="0.3"/><rect x="266" y="256" width="160" height="30" rx="12" fill="#A8DADC" fill-opacity=".85"/><rect x="280" y="268" width="126" height="5" rx="2.5" fill="#0f1418" fill-opacity="0.45"/><circle cx="540" cy="140" r="30" fill="#A8DADC" fill-opacity=".2" filter="url(#soft)"/><circle cx="540" cy="140" r="26" fill="#111a20" stroke="#A8DADC" stroke-width="2.5"/><path d="M12 12c2.21 0 4-1.79 4-4s-1.79-4-4-4-4 1.79-4 4 1.79 4 4 4zm0 2c-2.67 0-8 1.34-8 4v2h16v-2c0-2.66-5.33-4-8-4z" transform="translate(526 126) scale(1.167)" fill="#A8DADC" fill-opacity="1"/><circle cx="540" cy="244" r="26" fill="#111a20" stroke="#6DAEDB" stroke-width="2.5"/><path d="M12 12c2.21 0 4-1.79 4-4s-1.79-4-4-4-4 1.79-4 4 1.79 4 4 4zm0 2c-2.67 0-8 1.34-8 4v2h16v-2c0-2.66-5.33-4-8-4z" transform="translate(526 230) scale(1.167)" fill="#6DAEDB" fill-opacity="1"/><path d="M540 170 Q540 192 540 214" fill="none" stroke="#A8DADC" stroke-opacity="0.6" stroke-width="2" stroke-linecap="round" stroke-dasharray="5 6"/><path d="M452 180 Q482 165 512 150" fill="none" stroke="#A8DADC" stroke-opacity="0.35" stroke-width="2" stroke-linecap="round" stroke-dasharray="5 6"/><path d="M452 220 Q482 230 512 240" fill="none" stroke="#6DAEDB" stroke-opacity="0.35" stroke-width="2" stroke-linecap="round" stroke-dasharray="5 6"/>
<rect x="32" y="321" width="18" height="3" rx="1.5" fill="#A8DADC"/>
<text x="58" y="327" font-family="'Segoe UI', 'Helvetica Neue', Arial, sans-serif" font-size="12" font-weight="600" letter-spacing="2" text-anchor="start" fill="#dbe3e7" fill-opacity="0.8">CHAT SYSTEM · JAVA</text>
</svg>
