<svg xmlns="http://www.w3.org/2000/svg" viewBox="0 0 640 360" width="640" height="360" role="img" aria-label="Retail Sales - Trends illustration">
<defs>
<linearGradient id="bg" x1="0" y1="0" x2="1" y2="1"><stop offset="0" stop-color="#0b1115"/><stop offset="1" stop-color="#151e24"/></linearGradient>
<radialGradient id="glow" cx="0.66" cy="0.48" r="0.6"><stop offset="0" stop-color="#2FC4B2" stop-opacity="0.26"/><stop offset="1" stop-color="#2FC4B2" stop-opacity="0"/></radialGradient>
<radialGradient id="glow2" cx="0.05" cy="1" r="0.7"><stop offset="0" stop-color="#2FC4B2" stop-opacity="0.12"/><stop offset="1" stop-color="#2FC4B2" stop-opacity="0"/></radialGradient>
<pattern id="grid" width="32" height="32" patternUnits="userSpaceOnUse"><path d="M32 0H0V32" fill="none" stroke="#fff" stroke-opacity="0.045"/></pattern>
<linearGradient id="acc" x1="0" y1="0" x2="1" y2="1"><stop offset="0" stop-color="#2FC4B2"/><stop offset="1" stop-color="#6DAEDB"/></linearGradient>
<linearGradient id="fade" x1="0" y1="0" x2="0" y2="1"><stop offset="0" stop-color="#2FC4B2" stop-opacity="0.35"/><stop offset="1" stop-color="#2FC4B2" stop-opacity="0"/></linearGradient>
<filter id="soft" x="-50%" y="-50%" width="200%" height="200%"><feGaussianBlur stdDeviation="8"/></filter>
<marker id="arr" viewBox="0 0 10 10" refX="7" refY="5" markerWidth="7" markerHeight="7" orient="auto-start-reverse"><path d="M0 0L10 5L0 10z" fill="#2FC4B2"/></marker>
</defs>
<rect width="640" height="360" fill="url(#bg)"/>
<rect width="640" height="360" fill="url(#grid)"/>
<rect width="640" height="360" fill="url(#glow)"/>
<rect width="640" height="360" fill="url(#glow2)"/>
<circle cx="190" cy="182" r="62" fill="#2FC4B2" fill-opacity=".18" filter="url(#soft)"/><rect x="148" y="96" width="86" height="172" rx="16" fill="#111a20" stroke="#2FC4B2" stroke-width="2.5"/><rect x="174" y="104" width="34" height="7" rx="3.5" fill="#2FC4B2" fill-opacity=".5"/><rect x="160" y="124" width="40" height="4" rx="2.0" fill="#fff" fill-opacity="0.3"/><rect x="160" y="134" width="60" height="9" rx="4.5" fill="#2FC4B2" fill-opacity="1"/><rect x="160" y="202" width="8.4" height="28" rx="3" fill="#2FC4B2" fill-opacity="0.45"/><rect x="173.4" y="188" width="8.4" height="42" rx="3" fill="#2FC4B2" fill-opacity="0.45"/><rect x="186.8" y="195" width="8.4" height="35" rx="3" fill="#2FC4B2" fill-opacity="0.45"/><rect x="200.2" y="170.5" width="8.4" height="59.5" rx="3" fill="#2FC4B2" fill-opacity="1"/><rect x="213.6" y="181" width="8.4" height="49" rx="3" fill="#2FC4B2" fill-opacity="0.45"/><rect x="158" y="240" width="66" height="16" rx="8" fill="#6DAEDB" fill-opacity=".35"/><rect x="272" y="92" width="330" height="196" rx="12" fill="#fff" fill-opacity="0.045" stroke="#fff" stroke-opacity="0.12"/><text x="290" y="116" font-family="'Segoe UI', 'Helvetica Neue', Arial, sans-serif" font-size="10" font-weight="600" letter-spacing="1.5" text-anchor="start" fill="#9aa8ad" fill-opacity="1">MONTHLY SALES</text><rect x="290" y="216.6" width="17.2" height="43.4" rx="3" fill="#2FC4B2" fill-opacity="0.45"/><rect x="315.2" y="210.4" width="17.2" height="49.6" rx="3" fill="#2FC4B2" fill-opacity="0.45"/><rect x="340.3" y="212.9" width="17.2" height="47.1" rx="3" fill="#2FC4B2" fill-opacity="0.45"/><rect x="365.5" y="198" width="17.2" height="62" rx="3" fill="#2FC4B2" fill-opacity="0.45"/><rect x="390.7" y="191.8" width="17.2" height="68.2" rx="3" fill="#2FC4B2" fill-opacity="0.45"/><rect x="415.8" y="200.5" width="17.2" height="59.5" rx="3" fill="#2FC4B2" fill-opacity="0.45"/><rect x="441" y="185.6" width="17.2" height="74.4" rx="3" fill="#2FC4B2" fill-opacity="0.45"/><rect x="466.2" y="178.2" width="17.2" height="81.8" rx="3" fill="#2FC4B2" fill-opacity="0.45"/><rect x="491.3" y="188.1" width="17.2" height="71.9" rx="3" fill="#2FC4B2" fill-opacity="0.45"/><rect x="516.5" y="170.7" width="17.2" height="89.3" rx="3" fill="#2FC4B2" fill-opacity="0.45"/><rect x="541.7" y="148.4" width="17.2" height="111.6" rx="3" fill="#2FC4B2" fill-opacity="0.45"/><rect x="566.8" y="138.5" width="17.2" height="121.5" rx="3" fill="#2FC4B2" fill-opacity="1"/><path d="M290 224.4 L316.7 219.3 L343.5 221.4 L370.2 209.2 L396.9 204.1 L423.6 211.2 L450.4 199 L477.1 192.9 L503.8 201 L530.5 186.8 L557.3 168.5 L584 160.4" fill="none" stroke="#6DAEDB" stroke-width="2" stroke-linejoin="round" stroke-linecap="round"/><circle cx="584" cy="160.4" r="4.5" fill="#6DAEDB"/><circle cx="584" cy="160.4" r="9" fill="#6DAEDB" fill-opacity=".2"/><text x="298" y="276" font-family="'Segoe UI', 'Helvetica Neue', Arial, sans-serif" font-size="8" font-weight="600" letter-spacing="0" text-anchor="middle" fill="#9aa8ad" fill-opacity="1">J</text><text x="323.2" y="276" font-family="'Segoe UI', 'Helvetica Neue', Arial, sans-serif" font-size="8" font-weight="600" letter-spacing="0" text-anchor="middle" fill="#9aa8ad" fill-opacity="1">F</text><text x="348.4" y="276" font-family="'Segoe UI', 'Helvetica Neue', Arial, sans-serif" font-size="8" font-weight="600" letter-spacing="0" text-anchor="middle" fill="#9aa8ad" fill-opacity="1">M</text><text x="373.6" y="276" font-family="'Segoe UI', 'Helvetica Neue', Arial, sans-serif" font-size="8" font-weight="600" letter-spacing="0" text-anchor="middle" fill="#9aa8ad" fill-opacity="1">A</text><text x="398.8" y="276" font-family="'Segoe UI', 'Helvetica Neue', Arial, sans-serif" font-size="8" font-weight="600" letter-spacing="0" text-anchor="middle" fill="#9aa8ad" fill-opacity="1">M</text><text x="424" y="276" font-family="'Segoe UI', 'Helvetica Neue', Arial, sans-serif" font-size="8" font-weight="600" letter-spacing="0" text-anchor="middle" fill="#9aa8ad" fill-opacity="1">J</text><text x="449.2" y="276" font-family="'Segoe UI', 'Helvetica Neue', Arial, sans-serif" font-size="8" font-weight="600" letter-spacing="0" text-anchor="middle" fill="#9aa8ad" fill-opacity="1">J</text><text x="474.4" y="276" font-family="'Segoe UI', 'Helvetica Neue', Arial, sans-serif" font-size="8" font-weight="600" letter-spacing="0" text-anchor="middle" fill="#9aa8ad" fill-opacity="1">A</text><text x="499.6" y="276" font-family="'Segoe UI', 'Helvetica Neue', Arial, sans-serif" font-size="8" font-weight="600" letter-spacing="0" text-anchor="middle" fill="#9aa8ad" fill-opacity="1">S</text><text x="524.8" y="276" font-family="'Segoe UI', 'Helvetica Neue', Arial, sans-serif" font-size="8" font-weight="600" letter-spacing="0" text-anchor="middle" fill="#9aa8ad" fill-opacity="1">O</text><text x="550" y="276" font-family="'Segoe UI', 'Helvetica Neue', Arial, sans-serif" font-size="8" font-weight="600" letter-spacing="0" text-anchor="middle" fill="#9aa8ad" fill-opacity="1">N</text><text x="575.2" y="276" font-family="'Segoe UI', 'Helvetica Neue', Arial, sans-serif" font-size="8" font-weight="600" letter-spacing="0" text-anchor="middle" fill="#9aa8ad" fill-opacity="1">D</text>
<rect x="32" y="321" width="18" height="3" rx="1.5" fill="#2FC4B2"/>
<text x="58" y="327" font-family="'Segoe UI', 'Helvetica Neue', Arial, sans-serif" font-size="12" font-weight="600" letter-spacing="2" text-anchor="start" fill="#dbe3e7" fill-opacity="0.8">RETAIL SALES · TRENDS</text>
</svg>
