<svg xmlns="http://www.w3.org/2000/svg" viewBox="0 0 640 360" width="640" height="360" role="img" aria-label="Clinical Ai - Decision Support illustration">
<defs>
<linearGradient id="bg" x1="0" y1="0" x2="1" y2="1"><stop offset="0" stop-color="#0b1115"/><stop offset="1" stop-color="#151e24"/></linearGradient>
<radialGradient id="glow" cx="0.66" cy="0.48" r="0.6"><stop offset="0" stop-color="#FF6B6B" stop-opacity="0.26"/><stop offset="1" stop-color="#FF6B6B" stop-opacity="0"/></radialGradient>
<radialGradient id="glow2" cx="0.05" cy="1" r="0.7"><stop offset="0" stop-color="#2FC4B2" stop-opacity="0.12"/><stop offset="1" stop-color="#2FC4B2" stop-opacity="0"/></radialGradient>
<pattern id="grid" width="32" height="32" patternUnits="userSpaceOnUse"><path d="M32 0H0V32" fill="none" stroke="#fff" stroke-opacity="0.045"/></pattern>
<linearGradient id="acc" x1="0" y1="0" x2="1" y2="1"><stop offset="0" stop-color="#FF6B6B"/><stop offset="1" stop-color="#F2C14E"/></linearGradient>
<linearGradient id="fade" x1="0" y1="0" x2="0" y2="1"><stop offset="0" stop-color="#FF6B6B" stop-opacity="0.35"/><stop offset="1" stop-color="#FF6B6B" stop-opacity="0"/></linearGradient>
<filter id="soft" x="-50%" y="-50%" width="200%" height="200%"><feGaussianBlur stdDeviation="8"/></filter>
<marker id="arr" viewBox="0 0 10 10" refX="7" refY="5" markerWidth="7" markerHeight="7" orient="auto-start-reverse"><path d="M0 0L10 5L0 10z" fill="#FF6B6B"/></marker>
</defs>
<rect width="640" height="360" fill="url(#bg)"/>
<rect width="640" height="360" fill="url(#grid)"/>
<rect width="640" height="360" fill="url(#glow)"/>
<rect width="640" height="360" fill="url(#glow2)"/>
<path d="M110 262 H320 l8 -14 l8 14 h6 l7 -40 l9 70 l7 -42 l6 12 h8 l6 -8 l6 8 H610" fill="none" stroke="#FF6B6B" stroke-opacity="0.35" stroke-width="2" stroke-linejoin="round" stroke-linecap="round"/><path d="M143 128 V208 A32 10.2 0 0 0 207 208 V128" fill="#F2C14E" fill-opacity="0.08" stroke="#F2C14E" stroke-opacity=".85" stroke-width="2"/><path d="M143 154.7 A32 10.2 0 0 0 207 154.7" fill="none" stroke="#F2C14E" stroke-opacity=".45" stroke-width="1.5"/><path d="M143 181.3 A32 10.2 0 0 0 207 181.3" fill="none" stroke="#F2C14E" stroke-opacity=".45" stroke-width="1.5"/><ellipse cx="175" cy="128" rx="32" ry="10.2" fill="#F2C14E" fill-opacity=".3" stroke="#F2C14E" stroke-width="2"/><text x="175" y="245" font-family="'Segoe UI', 'Helvetica Neue', Arial, sans-serif" font-size="10" font-weight="600" letter-spacing="1.5" text-anchor="middle" fill="#9aa8ad" fill-opacity="1">EHR</text><path d="M212 170 Q240 170 268 170" fill="none" stroke="#FF6B6B" stroke-opacity="0.7" stroke-width="2" stroke-linecap="round" stroke-dasharray="5 6" marker-end="url(#arr)"/><circle cx="330" cy="170" r="67.5" fill="#FF6B6B" fill-opacity=".22" filter="url(#soft)"/><circle cx="330" cy="170" r="54" fill="#111a20" stroke="#FF6B6B" stroke-width="2.5"/><path d="M12 21.35l-1.45-1.32C5.4 15.36 2 12.28 2 8.5 2 5.42 4.42 3 7.5 3c1.74 0 3.41.81 4.5 2.09C13.09 3.81 14.76 3 16.5 3 19.58 3 22 5.42 22 8.5c0 3.78-3.4 6.86-8.55 11.54L12 21.35z" transform="translate(303 145) scale(2.250)" fill="#FF6B6B" fill-opacity="1"/><path d="M390 170 Q417 170 444 170" fill="none" stroke="#FF6B6B" stroke-opacity="0.7" stroke-width="2" stroke-linecap="round" stroke-dasharray="5 6" marker-end="url(#arr)"/><rect x="452" y="100" width="150" height="150" rx="12" fill="#fff" fill-opacity="0.045" stroke="#fff" stroke-opacity="0.12"/><text x="470" y="126" font-family="'Segoe UI', 'Helvetica Neue', Arial, sans-serif" font-size="10" font-weight="600" letter-spacing="1.5" text-anchor="start" fill="#9aa8ad" fill-opacity="1">RISK SCORE</text><rect x="470" y="146" width="112" height="8" rx="4.0" fill="#fff" fill-opacity="0.08"/><rect x="470" y="146" width="91.8" height="8" rx="4.0" fill="#FF6B6B" fill-opacity="1"/><rect x="470" y="176" width="112" height="8" rx="4.0" fill="#fff" fill-opacity="0.08"/><rect x="470" y="176" width="65" height="8" rx="4.0" fill="#F2C14E" fill-opacity="1"/><rect x="470" y="206" width="112" height="8" rx="4.0" fill="#fff" fill-opacity="0.08"/><rect x="470" y="206" width="40.3" height="8" rx="4.0" fill="#6DAEDB" fill-opacity="1"/><rect x="470" y="236" width="60" height="4" rx="2.0" fill="#fff" fill-opacity="0.2"/>
<rect x="32" y="321" width="18" height="3" rx="1.5" fill="#FF6B6B"/>
<text x="58" y="327" font-family="'Segoe UI', 'Helvetica Neue', Arial, sans-serif" font-size="12" font-weight="600" letter-spacing="2" text-anchor="start" fill="#dbe3e7" fill-opacity="0.8">CLINICAL AI · DECISION SUPPORT</text>
</svg>
